<?xml version="1.0" encoding="iso-8859-1"?>
<!-- Generator: Adobe Illustrator 19.0.0, SVG Export Plug-In . SVG Version: 6.00 Build 0)  -->
<svg version="1.1" id="Capa_1" xmlns="http://www.w3.org/2000/svg" xmlns:xlink="http://www.w3.org/1999/xlink" x="0px" y="0px"
	 viewBox="0 0 503.873 503.873" style="enable-background:new 0 0 503.873 503.873;" xml:space="preserve">
<g>
	<g>
		<path d="M446.984,77.206h-32.508V93.46h32.508c22.756,0,40.635,17.879,40.635,40.635v276.317
			c0,22.756-17.879,40.635-40.635,40.635H56.889c-22.756,0-40.635-17.879-40.635-40.635V134.095
			c0-22.756,17.879-40.635,40.635-40.635h32.508V77.206H56.889C25.194,77.206,0,102.4,0,134.095v276.317
			c0,31.695,25.194,56.889,56.889,56.889h390.095c31.695,0,56.889-25.194,56.889-56.889V134.095
			C503.873,102.4,478.679,77.206,446.984,77.206z"/>
	</g>
</g>
<g>
	<g>
		<rect x="170.667" y="77.206" width="162.54" height="16.254"/>
	</g>
</g>
<g>
	<g>
		<path d="M97.524,36.571v97.524h65.016V36.571H97.524z M146.286,117.841h-32.508V52.825h32.508V117.841z"/>
	</g>
</g>
<g>
	<g>
		<path d="M341.333,36.571v97.524h65.016V36.571H341.333z M390.095,117.841h-32.508V52.825h32.508V117.841z"/>
	</g>
</g>
<g>
	<g>
		<path d="M48.762,158.476v243.81c0,8.94,7.314,16.254,16.254,16.254h373.841c8.94,0,16.254-7.314,16.254-16.254v-243.81H48.762z
			 M438.857,402.286H65.016V174.73h373.841V402.286z"/>
	</g>
</g>
<g>
	<g>
		<path d="M341.333,207.238v65.016h65.016v-65.016H341.333z M390.095,256h-32.508v-32.508h32.508V256z"/>
	</g>
</g>
<g>
	<g>
		<path d="M260.064,207.238v65.016h65.016v-65.016H260.064z M308.825,256h-32.508v-32.508h32.508V256z"/>
	</g>
</g>
<g>
	<g>
		<path d="M178.794,207.238v65.016h65.016v-65.016H178.794z M227.556,256h-32.508v-32.508h32.508V256z"/>
	</g>
</g>
<g>
	<g>
		<path d="M97.524,304.762v65.016h65.016v-65.016H97.524z M146.286,353.524h-32.508v-32.508h32.508V353.524z"/>
	</g>
</g>
<g>
	<g>
		<path d="M260.064,304.762v65.016h65.016v-65.016H260.064z M308.825,353.524h-32.508v-32.508h32.508V353.524z"/>
	</g>
</g>
<g>
	<g>
		<path d="M178.794,304.762v65.016h65.016v-65.016H178.794z M227.556,353.524h-32.508v-32.508h32.508V353.524z"/>
	</g>
</g>
<g>
	<g>
		<rect x="243.81" y="117.841" width="16.254" height="16.254"/>
	</g>
</g>
<g>
	<g>
		<rect x="211.302" y="117.841" width="16.254" height="16.254"/>
	</g>
</g>
<g>
	<g>
		<rect x="276.318" y="117.841" width="16.254" height="16.254"/>
	</g>
</g>
<g>
</g>
<g>
</g>
<g>
</g>
<g>
</g>
<g>
</g>
<g>
</g>
<g>
</g>
<g>
</g>
<g>
</g>
<g>
</g>
<g>
</g>
<g>
</g>
<g>
</g>
<g>
</g>
<g>
</g>
</svg>
