<?xml version="1.0" encoding="iso-8859-1"?>
<!-- Generator: Adobe Illustrator 19.0.0, SVG Export Plug-In . SVG Version: 6.00 Build 0)  -->
<svg version="1.1" id="Capa_1" xmlns="http://www.w3.org/2000/svg" xmlns:xlink="http://www.w3.org/1999/xlink" x="0px" y="0px"
	 viewBox="0 0 503.724 503.724" style="enable-background:new 0 0 503.724 503.724;" xml:space="preserve">
<g>
	<g>
		<path d="M194.235,49.452c-80.457,0-145.473,65.829-145.473,145.473s65.829,145.473,145.473,145.473
			s145.473-65.829,145.473-145.473S274.692,49.452,194.235,49.452z M194.235,324.956c-71.517,0-130.032-58.514-130.032-130.032
			S122.717,64.893,194.235,64.893s130.032,58.514,130.032,130.032S265.752,324.956,194.235,324.956z"/>
	</g>
</g>
<g>
	<g>
		<path d="M266.565,186.798c-3.251-33.321-30.07-60.14-64.203-64.203v-8.94h-16.254v8.94c-34.133,4.064-60.952,30.883-64.203,64.203
			h-8.94v16.254h8.94c4.063,34.133,30.883,60.952,64.203,64.203v8.94h16.254v-8.94c34.133-4.063,60.952-30.883,64.203-64.203h8.94
			v-16.254H266.565z M250.311,203.051c-3.251,24.381-23.568,44.698-47.949,47.949v-7.314h-16.254v7.314
			c-25.194-3.251-44.698-23.568-47.949-47.949h7.314v-16.254h-7.314c3.251-25.194,23.568-44.698,47.949-47.949v7.314h16.254v-7.314
			c25.194,3.251,44.698,23.568,47.949,47.949h-7.314v16.254H250.311z"/>
	</g>
</g>
<g>
	<g>
		<path d="M488.432,420.042L385.219,316.829l-11.378,11.378l-20.317-20.317c22.756-31.695,35.759-70.705,35.759-112.965
			c0-107.276-86.959-194.235-194.235-194.235S0,88.461,0,194.925s86.959,194.235,194.235,194.235
			c42.26,0,80.457-13.003,112.965-35.759l20.318,20.317l-11.378,12.19l103.213,103.213c14.629,13.816,46.324,22.756,69.079,0
			C511.187,465.553,506.311,438.734,488.432,420.042z M194.235,373.718c-98.336,0-177.981-79.644-177.981-177.981
			S95.898,17.756,194.235,17.756s177.981,79.644,177.981,177.981C373.029,293.261,292.571,373.718,194.235,373.718z
			 M320.203,343.648c8.127-7.314,16.254-14.629,22.756-22.756l19.505,19.505l-22.756,22.756L320.203,343.648z M477.054,477.744
			c-12.19,12.19-33.321,12.19-45.511,0l-92.648-91.835l45.511-45.511l91.835,91.835
			C495.746,450.925,482.743,471.242,477.054,477.744z"/>
	</g>
</g>
<g>
	<g>
		
			<rect x="379.861" y="380.329" transform="matrix(0.7071 -0.7071 0.7071 0.7071 -161.0408 388.1251)" width="16.254" height="16.254"/>
	</g>
</g>
<g>
	<g>
		
			<rect x="403.093" y="403.631" transform="matrix(0.7071 -0.7071 0.7071 0.7071 -170.7135 411.3792)" width="16.254" height="16.254"/>
	</g>
</g>
<g>
	<g>
		
			<rect x="425.73" y="426.657" transform="matrix(0.7071 -0.7071 0.7071 0.7071 -180.3648 434.1282)" width="16.254" height="16.254"/>
	</g>
</g>
<g>
</g>
<g>
</g>
<g>
</g>
<g>
</g>
<g>
</g>
<g>
</g>
<g>
</g>
<g>
</g>
<g>
</g>
<g>
</g>
<g>
</g>
<g>
</g>
<g>
</g>
<g>
</g>
<g>
</g>
</svg>
