<?xml version="1.0" encoding="iso-8859-1"?>
<!-- Generator: Adobe Illustrator 19.0.0, SVG Export Plug-In . SVG Version: 6.00 Build 0)  -->
<svg version="1.1" id="Capa_1" xmlns="http://www.w3.org/2000/svg" xmlns:xlink="http://www.w3.org/1999/xlink" x="0px" y="0px"
	 viewBox="0 0 504.149 504.149" style="enable-background:new 0 0 504.149 504.149;" xml:space="preserve">
<g>
	<g>
		<path d="M242.736,0.276C149.276,5.965,75.32,83.172,73.695,176.632c-0.813,52.825,21.943,102.4,60.952,137.346
			c22.756,19.505,35.759,47.137,35.759,74.768c-4.876,4.064-8.127,10.565-8.127,17.879c0,8.94,4.876,16.254,11.378,20.317
			c-1.625,3.251-3.251,7.314-3.251,12.19c0,13.816,10.565,24.381,24.381,24.381h8.94c4.063,22.756,23.568,40.635,47.949,40.635
			s43.886-17.879,47.949-40.635h8.94c13.816,0,24.381-10.565,24.381-24.381c0-4.063-1.625-8.127-3.251-12.19
			c6.502-4.063,11.378-12.19,11.378-20.317c0-7.314-3.251-13.816-8.127-17.879c0.813-28.444,13.816-55.263,35.759-74.768
			c39.01-34.133,61.765-82.895,61.765-134.908C431.282,77.483,345.949-5.413,242.736,0.276z M252.489,487.895
			c-15.441,0-27.632-10.565-31.695-24.381h62.578C280.12,477.33,267.93,487.895,252.489,487.895z M309.378,447.261H195.6
			c-4.876,0-8.127-3.251-8.127-8.127s3.251-8.127,8.127-8.127h113.778c4.876,0,8.127,3.251,8.127,8.127
			S314.254,447.261,309.378,447.261z M317.505,414.753H187.473c-4.876,0-8.127-3.251-8.127-8.127s3.251-8.127,8.127-8.127h130.032
			c4.876,0,8.127,3.251,8.127,8.127S322.381,414.753,317.505,414.753z M358.952,301.787c-24.381,21.13-39.01,50.387-41.448,80.457
			H187.473c-2.438-30.883-17.067-59.327-41.448-80.457c-35.759-31.695-56.076-77.206-56.076-125.156
			c1.625-85.333,69.079-155.225,153.6-160.102c93.46-4.876,171.479,69.892,171.479,162.54
			C415.028,226.207,394.711,270.905,358.952,301.787z"/>
	</g>
</g>
<g>
	<g>
		<path d="M114.33,179.07h16.254c0-67.454,54.451-121.905,121.905-121.905V40.911C176.095,40.911,114.33,102.676,114.33,179.07z"/>
	</g>
</g>
<g>
</g>
<g>
</g>
<g>
</g>
<g>
</g>
<g>
</g>
<g>
</g>
<g>
</g>
<g>
</g>
<g>
</g>
<g>
</g>
<g>
</g>
<g>
</g>
<g>
</g>
<g>
</g>
<g>
</g>
</svg>
